<svg xmlns="http://www.w3.org/2000/svg" xmlns:xlink="http://www.w3.org/1999/xlink" viewBox="0 0 96 96"><defs><linearGradient id="a" x1="48" x2="48" y2="96" gradientUnits="userSpaceOnUse"><stop offset="0" stop-color="#ff5b37"/><stop offset="1" stop-color="#fa2e69"/></linearGradient><linearGradient id="b" x1="26.5" y1="32.5" x2="93" y2="99" gradientUnits="userSpaceOnUse"><stop offset="0" stop-opacity="0.35"/><stop offset="0.85" stop-opacity="0"/></linearGradient></defs><rect width="96" height="96" style="fill:url(#a)"/><polygon points="39 20 40.98 21.98 57 22 57 26 39 26 41 28 57 28 57 46 69 46 48 67 55 74 69 74 69 79 27 79 44 96 96 96 96 56 57 17 57 20 39 20" style="fill:url(#b)"/><g style="opacity:0.5"><polygon points="39 20 57 20 57 17 58 17 58 21 39 21 39 20" style="fill:#800400"/><polygon points="39 26 57 26 57 22 58 22 58 27 39 27 39 26" style="fill:#800400"/><polygon points="48 67 69 46 57 46 57 28 58 28 58 45 71.5 45 49 68 48 67" style="fill:#800400"/><polygon points="27 79 69 79 69 74 70 74 70 80 27 80 27 79" style="fill:#800400"/></g><rect x="27" y="74" width="42" height="5" style="fill:#fff"/><polygon points="57 46 69 46 48 67 27 46 39 46 39 28 57 28 57 46" style="fill:#fff"/><rect x="39" y="22" width="18" height="4" style="fill:#fff"/><rect x="39" y="17" width="18" height="3" style="fill:#fff"/></svg>